<svg width="800" height="800" viewBox="0 0 800 800" fill="none" xmlns="http://www.w3.org/2000/svg">
<g clip-path="url(#clip0_583_1356)">
<path d="M500.123 588.499C658.319 588.499 786.561 460.256 786.561 302.061C786.561 143.866 658.319 15.6235 500.123 15.6235C341.928 15.6235 213.686 143.866 213.686 302.061C213.686 460.256 341.928 588.499 500.123 588.499Z" fill="#F09EA0"/>
<path d="M702.672 99.5079C695.672 92.5079 688.398 85.9469 680.889 79.8235C772.63 192.333 766.069 358.273 661.205 463.139C556.339 568.005 390.397 574.566 277.889 482.823C284.012 490.334 290.575 497.605 297.573 504.606C409.439 616.472 590.808 616.472 702.673 504.606C814.534 392.742 814.534 211.373 702.672 99.5079Z" fill="#EF8990"/>
<path d="M627.314 133.089C587.052 99.764 536.222 84.1108 484.188 89.0218C421.903 94.8921 391.931 106.291 327.327 158.298C263.036 210.053 155.669 459.825 391.297 565.905C525.988 621.837 620.948 551.544 660.356 549.189C360.116 573.62 330.213 375.75 326.758 339.12C322.239 291.197 336.652 244.383 367.344 207.3C398.036 170.217 441.333 147.306 489.256 142.787C526.917 139.234 563.727 150.566 592.878 174.692C622.027 198.817 640.036 232.851 643.589 270.525C646.369 299.997 637.503 328.784 618.63 351.587C599.755 374.392 573.131 388.481 543.659 391.259C520.748 393.425 498.369 386.528 480.644 371.856C470.925 363.814 463.245 353.959 457.931 342.923C473.722 368.891 503.422 385.073 535.653 382.025C560.091 379.722 582.184 368.019 597.864 349.075C613.544 330.131 620.911 306.239 618.606 281.803C613.192 224.367 562.061 182.034 504.619 187.459C472.634 190.473 443.717 205.792 423.189 230.594C402.661 255.395 393.02 286.666 396.036 318.648C399.548 355.919 417.367 389.592 446.208 413.464C475.048 437.333 511.452 448.544 548.727 445.03C592.559 440.898 632.158 419.942 660.233 386.025C688.306 352.108 701.489 309.291 697.355 265.458C692.45 213.42 667.575 166.412 627.314 133.089ZM452.086 288.975C454.584 280.322 458.867 272.189 464.794 265.028C476.123 251.341 492.066 242.887 509.688 241.225C537.481 238.617 562.219 259.084 564.841 286.872C565.789 296.947 562.744 306.809 556.259 314.642C549.777 322.475 540.658 327.312 530.583 328.262C515.292 329.697 501.648 318.426 500.203 303.117C498.884 289.131 487.122 278.647 473.353 278.647C472.505 278.647 471.648 278.687 470.786 278.769C463.116 279.492 456.497 283.358 452.086 288.975Z" fill="#F9DE8F"/>
<path d="M286.448 88.0031C280.798 93.6531 280.798 102.813 286.448 108.459C292.098 114.109 301.258 114.109 306.905 108.459C412.952 2.41564 585.498 2.4125 691.547 108.459C797.594 214.506 797.594 387.055 691.547 493.102C585.5 599.148 412.952 599.145 306.905 493.102C270.513 456.709 245.298 411.08 233.986 361.141C222.973 312.525 225.458 261.872 241.17 214.662C243.694 207.083 239.595 198.891 232.013 196.369C224.434 193.845 216.244 197.947 213.72 205.527C196.341 257.747 193.592 313.767 205.77 367.533C217.227 418.111 241.595 464.663 276.492 503.056L4.18907 775.363C-1.07812 780.628 -1.42812 789.328 3.41876 794.989C8.82813 801.306 18.7594 801.703 24.6453 795.819L296.928 523.538C354.127 575.542 426.675 601.555 499.227 601.555C576.286 601.555 653.342 572.222 712.005 513.559C829.331 396.233 829.331 205.33 712.005 88.0031C594.681 -29.3219 403.777 -29.3234 286.448 88.0031Z" fill="black"/>
<path d="M363.278 470.258C369.975 465.789 371.78 456.739 367.311 450.047C345.014 416.631 331.3 378.509 327.65 339.802C323.147 292.038 337.511 245.378 368.103 208.417C398.695 171.456 441.847 148.625 489.609 144.12C527.047 140.591 563.617 151.85 592.583 175.825C621.55 199.802 639.447 233.622 642.977 271.059C645.727 300.233 636.953 328.733 618.267 351.306C599.583 373.88 573.225 387.83 544.053 390.58C521.489 392.708 499.447 385.92 481.987 371.47C464.528 357.02 453.741 336.636 451.614 314.07C448.252 278.406 474.531 246.655 510.194 243.294C537.125 240.756 561.098 260.599 563.639 287.53C565.52 307.475 550.822 325.231 530.878 327.111C516.522 328.466 503.742 317.886 502.389 303.53C501.634 295.516 494.525 289.633 486.511 290.389C478.498 291.145 472.614 298.253 473.37 306.267C476.233 336.624 503.258 358.991 533.614 356.13C569.559 352.741 596.045 320.739 592.656 284.794C588.608 241.863 550.388 210.228 507.456 214.277C455.791 219.147 417.722 265.144 422.594 316.808C425.452 347.124 439.945 374.509 463.402 393.925C486.859 413.339 516.473 422.456 546.788 419.599C583.713 416.117 617.073 398.466 640.722 369.892C664.37 341.32 675.477 305.25 671.994 268.325C667.733 223.139 646.131 182.313 611.166 153.374C576.202 124.434 532.058 110.842 486.872 115.103C431.356 120.338 381.202 146.877 345.647 189.834C310.092 232.792 293.395 287.022 298.63 342.539C302.73 386.038 318.097 428.808 343.064 466.225C347.534 472.919 356.584 474.724 363.278 470.258Z" fill="black"/>
</g>
<defs>
<clipPath id="clip0_583_1356">
<rect width="800" height="800" fill="white"/>
</clipPath>
</defs>
</svg>
