<svg width="72" height="72" viewBox="0 0 72 72" fill="none" xmlns="http://www.w3.org/2000/svg">
<path d="M29.9346 60.2188V64.7865C29.9346 68.1364 32.65 70.8518 35.9999 70.8518C39.3497 70.8518 42.0652 68.1364 42.0652 64.7865V60.2188H29.9346Z" fill="#C7CFE2"/>
<path opacity="0.1" d="M34.5278 64.7865V60.2188H29.9347V64.7865C29.9347 68.1364 32.6502 70.8518 36 70.8518C36.8129 70.8518 37.5879 70.6908 38.2965 70.4004C36.0858 69.4951 34.5278 67.3233 34.5278 64.7865Z" fill="black"/>
<path d="M36.2617 12.0386C25.8124 11.8971 17.0649 20.5218 17.0649 30.9719C17.0649 35.1369 18.4109 38.9871 20.6898 42.1135C24.3473 48.2033 26.0846 51.0405 26.609 54.7579C26.8339 56.3518 28.1957 57.5381 29.8053 57.5381H42.1946C43.8042 57.5381 45.1659 56.3516 45.3909 54.7579C45.9154 51.0405 47.6527 48.2034 51.3101 42.1135C53.5892 38.9871 54.935 35.1369 54.935 30.9719C54.935 20.6017 46.5984 12.1785 36.2617 12.0386Z" fill="#FFD782"/>
<path opacity="0.1" d="M32.7331 54.7576C32.2086 51.0402 30.4714 48.203 26.8139 42.1131C24.5348 38.9868 23.189 35.1366 23.189 30.9716C23.189 21.6428 30.1604 13.7693 39.0899 12.2876C38.168 12.1361 37.2234 12.0513 36.2617 12.0381C25.8124 11.8966 17.0649 20.5213 17.0649 30.9714C17.0649 35.1365 18.4109 38.9866 20.6898 42.113C24.3473 48.2029 26.0845 51.04 26.609 54.7574C26.8339 56.3513 28.1957 57.5375 29.8053 57.5375H35.9295C34.3198 57.5377 32.958 56.3514 32.7331 54.7576Z" fill="black"/>
<path d="M44.5517 60.2187L36 57.5378L27.4483 60.2187C25.9677 60.2187 24.7675 61.4191 24.7675 62.8996C24.7675 64.3802 25.9678 65.5806 27.4483 65.5806H44.5516C46.0322 65.5806 47.2324 64.3802 47.2324 62.8996C47.2326 61.4191 46.0322 60.2187 44.5517 60.2187Z" fill="#B4BBCC"/>
<path opacity="0.1" d="M30.8916 62.8997C30.8916 61.4191 32.0919 60.2188 33.5726 60.2188L39.0621 58.498L36 57.5381L27.4483 60.219C25.9677 60.219 24.7673 61.4193 24.7673 62.8998C24.7673 64.3805 25.9677 65.5809 27.4483 65.5809H33.5726C32.0919 65.5806 30.8916 64.3805 30.8916 62.8997Z" fill="black"/>
<path d="M44.5517 54.8569H27.4483C25.9677 54.8569 24.7675 56.0573 24.7675 57.5378C24.7675 59.0185 25.9678 60.2187 27.4483 60.2187H44.5516C46.0322 60.2187 47.2324 59.0183 47.2324 57.5378C47.2326 56.0573 46.0322 54.8569 44.5517 54.8569Z" fill="#C7CFE2"/>
<path opacity="0.1" d="M30.8916 57.5378C30.8916 56.0572 32.0919 54.8569 33.5726 54.8569H27.4483C25.9677 54.8569 24.7673 56.0573 24.7673 57.5378C24.7673 59.0184 25.9677 60.2187 27.4483 60.2187H33.5726C32.0919 60.2187 30.8916 59.0186 30.8916 57.5378Z" fill="black"/>
<path d="M34.8517 1.14834V7.3897C34.8517 8.02392 35.3658 8.53805 36 8.53805C36.6342 8.53805 37.1484 8.02392 37.1484 7.3897V1.14834C37.1484 0.514125 36.6342 0 36 0C35.3658 0 34.8517 0.514125 34.8517 1.14834Z" fill="black"/>
<path d="M17.9132 6.047L20.8987 11.528C21.1071 11.9106 21.5011 12.1272 21.9081 12.1272C22.0937 12.1272 22.2818 12.0822 22.4564 11.9871C23.0134 11.6838 23.2188 10.9863 22.9155 10.4294L19.93 4.94844C19.6267 4.39142 18.9292 4.18583 18.3723 4.4893C17.8156 4.79276 17.61 5.49012 17.9132 6.047Z" fill="black"/>
<path d="M5.38198 18.4512L10.6256 21.8364C10.8183 21.9608 11.034 22.02 11.2473 22.02C11.624 22.02 11.9933 21.8347 12.2131 21.4944C12.5571 20.9615 12.4041 20.2508 11.8713 19.9068L6.62763 16.5217C6.09467 16.1776 5.38409 16.3306 5.04012 16.8636C4.69601 17.3964 4.84915 18.1073 5.38198 18.4512Z" fill="black"/>
<path d="M53.6272 4.48927C53.0699 4.1858 52.3727 4.39153 52.0695 4.94841L49.0842 10.4294C48.7809 10.9864 48.9863 11.6836 49.5432 11.9871C49.7177 12.0822 49.9059 12.1272 50.0915 12.1272C50.4985 12.1272 50.8925 11.9103 51.1009 11.528L54.0862 6.04697C54.3897 5.48995 54.1841 4.79274 53.6272 4.48927Z" fill="black"/>
<path d="M65.3723 16.5217L60.1287 19.9068C59.5959 20.2508 59.4427 20.9615 59.7868 21.4943C60.0065 21.8345 60.3756 22.02 60.7526 22.02C60.9661 22.02 61.182 21.9607 61.3743 21.8363L66.618 18.4512C67.1508 18.1072 67.3039 17.3965 66.9598 16.8637C66.6159 16.3309 65.9046 16.178 65.3723 16.5217Z" fill="black"/>
<path d="M49.0723 45.86C49.256 45.969 49.4581 46.0209 49.6572 46.0209C50.0492 46.0209 50.4313 45.8201 50.6458 45.4584C51.1066 44.6817 51.6078 43.8474 52.1538 42.9384L52.2683 42.7478C54.7643 39.3058 56.083 35.2349 56.083 30.9716C56.083 25.6554 54.0263 20.6444 50.2915 16.8619C46.5603 13.0828 41.5832 10.9619 36.277 10.8902C30.753 10.8205 25.3677 13.1048 21.4927 17.1707C21.055 17.6298 21.0725 18.3566 21.5318 18.7942C21.9909 19.2317 22.7178 19.2144 23.1553 18.7551C26.591 15.1499 31.3624 13.1176 36.2462 13.1865C40.9453 13.2502 45.3532 15.1285 48.6576 18.4754C51.9653 21.8254 53.7868 26.2633 53.7868 30.9716C53.7868 34.7626 52.6096 38.3814 50.3824 41.4369C50.3623 41.4645 50.3434 41.4928 50.3258 41.522L50.1855 41.7556C49.6372 42.6684 49.1338 43.5064 48.671 44.2863C48.3473 44.8319 48.527 45.5363 49.0723 45.86Z" fill="black"/>
<path d="M47.9397 47.8306C47.3759 47.5409 46.6835 47.7629 46.3935 48.3271C45.3591 50.3402 44.7413 52.0004 44.404 53.7085H27.5959C26.9121 50.2416 25.1461 47.3021 21.8795 41.8641L21.6741 41.5223C21.6565 41.493 21.6376 41.4647 21.6175 41.437C19.3903 38.3815 18.2131 34.7627 18.2131 30.9717C18.2131 27.9074 19.0314 24.8714 20.5799 22.1922C20.8972 21.6432 20.7092 20.9408 20.1602 20.6236C19.6114 20.3062 18.9089 20.494 18.5916 21.0432C16.8418 24.0713 15.9169 27.5045 15.9169 30.9717C15.9169 35.2349 17.2357 39.3057 19.7316 42.7479L19.9112 43.0468C23.1928 48.5099 24.7955 51.1786 25.3749 54.3214C24.3196 55.004 23.6193 56.1903 23.6193 57.5379C23.6193 58.5811 24.0389 59.5275 24.7179 60.2188C24.0391 60.9101 23.6193 61.8566 23.6193 62.8997C23.6193 65.0111 25.3372 66.729 27.4484 66.729H29.0539C29.9103 69.7948 32.7363 71.9999 35.9999 71.9999C39.2636 71.9999 42.0896 69.7949 42.9461 66.7289H44.5516C46.6631 66.7289 48.3807 65.011 48.3807 62.8995C48.3807 61.8564 47.9611 60.9099 47.2822 60.2186C47.9609 59.5273 48.3807 58.5808 48.3807 57.5378C48.3807 56.1902 47.6804 55.0037 46.6252 54.3212C46.912 52.7614 47.4571 51.2821 48.4361 49.3767C48.7261 48.8127 48.5036 48.1204 47.9397 47.8306ZM35.9999 69.7034C34.0011 69.7034 32.243 68.4905 31.4835 66.7289H40.5164C39.7566 68.4905 37.9985 69.7034 35.9999 69.7034ZM41.3582 61.367H44.5515C45.3967 61.367 46.084 62.0546 46.084 62.8995C46.084 63.7447 45.3964 64.4322 44.5515 64.4322H27.4481C26.603 64.4322 25.9156 63.7445 25.9156 62.8995C25.9156 62.0545 26.6032 61.367 27.4481 61.367H36.8181C37.4523 61.367 37.9664 60.8529 37.9664 60.2186C37.9664 59.5844 37.4523 59.0703 36.8181 59.0703H27.4481C26.603 59.0703 25.9156 58.3826 25.9156 57.5378C25.9156 56.8457 26.3767 56.26 27.0077 56.0702C27.0669 56.0525 27.1274 56.0391 27.1885 56.0287C27.2069 56.0255 27.2252 56.0228 27.2438 56.0203C27.3113 56.0114 27.3794 56.005 27.4481 56.005H44.5514C44.6203 56.005 44.6882 56.0113 44.7557 56.0203C44.7744 56.0227 44.7927 56.0256 44.8112 56.0289C44.8718 56.0391 44.9319 56.0525 44.9907 56.0701C45.6222 56.2595 46.084 56.8453 46.084 57.5379C46.084 58.3831 45.3964 59.0704 44.5515 59.0704H41.3582C40.724 59.0704 40.2098 59.5846 40.2098 60.2188C40.2098 60.853 40.724 61.367 41.3582 61.367Z" fill="black"/>
</svg>
